<?xml version="1.0" encoding="UTF-8"?><svg id="a" xmlns="http://www.w3.org/2000/svg" viewBox="0 0 755.29 499.88"><defs><style>.b,.c{fill:#fff;}.d{fill:#2584ff;}.c{fill-rule:evenodd;}</style></defs><g><rect class="d" y="318" width="749.53" height="73.89"/><rect class="d" x="27.82" y="425.98" width="693.89" height="73.89"/></g><g><path class="b" d="M27.17,299.16h50.5v14.32H45.38v17.87h26.75v12.21h-26.75v28.64H27.17v-73.03Z"/><path class="b" d="M99.1,299.16h18.2v58.72h33.3v14.32h-51.5v-73.03Z"/><path class="b" d="M221.86,357.32h-29.19l-4.99,14.87h-18.65l28.19-73.03h22.64l28.19,73.03h-21.2l-4.99-14.87Zm-3.77-11.32l-10.77-31.97h-.22l-10.66,31.97h21.64Z"/><path class="b" d="M261.05,336.68c0-24.31,16.43-38.62,38.85-38.62,18.42,0,33.19,9.88,33.19,26.53,0,1.67-.11,3.44-.22,4.33h-15.87c.11-1.22,.11-2.33,.11-3.11,0-8.66-7.88-13.43-16.54-13.43-12.43,0-20.98,9.1-20.98,24.42s8.99,23.2,20.31,23.2c8.21,0,16.43-4.99,16.43-13.32v-1.11h-18.87v-10.32h36.18v36.96h-14.1c.11-2.66,.33-7.88,.33-12.54h-.11c-2.11,8.55-10.54,13.65-22.42,13.65-20.87,0-36.29-13.65-36.29-36.63Z"/><path class="b" d="M355.95,347.11h16.21c0,7.88,3.22,12.99,15.43,12.99s15.1-4.44,15.1-9.1c0-3.11-1.33-5.11-4.22-6.1-3.22-1.11-10.77-2.22-16.87-3.11-7.21-1.11-14.54-2.55-18.76-5.33-4.66-3-7.1-8.1-7.1-15.09,0-13.76,10.77-23.31,31.85-23.31,23.2,0,30.75,9.66,30.75,26.08h-16.09c0-8.32-4.33-12.88-14.32-12.88s-14.1,3.66-14.1,8.55c0,3.55,1,5.55,3.55,6.66,2.77,1.22,10.43,2.44,16.65,3.44,8.21,1.33,14.43,2.66,18.76,5,5.22,2.77,7.99,7.99,7.99,14.87,0,12.43-6.99,23.53-33.08,23.53s-31.74-12.76-31.74-26.19Z"/><path class="b" d="M458.74,313.48h-20.76v-14.32h59.6v14.32h-20.64v58.71h-18.2v-58.71Z"/><path class="b" d="M555.42,357.32h-29.19l-5,14.87h-18.65l28.19-73.03h22.64l28.19,73.03h-21.2l-4.99-14.87Zm-3.77-11.32l-10.77-31.97h-.22l-10.66,31.97h21.64Z"/><path class="b" d="M602.93,299.16h50.5v14.32h-32.3v17.87h26.75v12.21h-26.75v28.64h-18.2v-73.03Z"/><path class="b" d="M674.85,299.16h50.5v14.32h-32.3v17.87h26.75v12.21h-26.75v28.64h-18.2v-73.03Z"/><path class="b" d="M43.43,411.16h32.19c17.2,0,27.42,7.1,27.42,19.09,0,8.1-3.88,13.87-10.43,15.65v.11c7.88,1.78,13.21,7.66,13.21,16.87,0,13.43-9.43,21.31-27.86,21.31H43.43v-73.03Zm33.41,30.3c6.55,0,10.21-2.89,10.21-8.33s-3.66-8.77-11.54-8.77h-13.87v17.09h15.21Zm1.11,29.52c6.66,0,10.54-3.77,10.54-9.99,0-5.11-4-8.55-10.99-8.55h-15.87v18.54h16.32Z"/><path class="b" d="M126.79,447.34c0-23.42,17.09-37.29,39.18-37.29s39.18,13.87,39.18,37.29-17.09,37.96-39.18,37.96-39.18-14.1-39.18-37.96Zm59.49,.11c0-14.54-8.77-23.09-20.31-23.09s-20.31,8.55-20.31,23.09,8.77,23.53,20.31,23.53,20.31-8.77,20.31-23.53Z"/><path class="b" d="M227.47,455.89v-44.73h18.2v44.06c0,9.99,6.77,14.98,16.43,14.98s16.43-5,16.43-14.98v-44.06h16.09v44.73c0,18.65-13.1,29.41-33.52,29.41s-33.63-10.77-33.63-29.41Z"/><path class="b" d="M318.6,411.16h18.2v58.72h33.3v14.32h-51.5v-73.03Z"/><path class="b" d="M391.64,411.16h29.41c23.31,0,37.74,12.43,37.74,36.41s-13.65,36.63-35.41,36.63h-31.74v-73.03Zm31.52,58.72c10.1,0,17.54-6.88,17.54-22.31s-7.88-22.09-18.65-22.09h-12.21v44.4h13.32Z"/><path class="b" d="M481.55,411.16h51.72v14.32h-33.52v16.43h25.97v11.1h-25.97v16.87h34.52v14.32h-52.72v-73.03Z"/><path class="b" d="M556.25,411.16h34.07c19.31,0,29.75,7.99,29.75,21.75,0,9.32-4,15.21-10.88,17.2v.22c7.21,1.67,10.43,7.44,10.43,15.65v18.2h-18.2v-17.65c0-6.66-2.44-9.55-9.32-9.55h-17.65v27.19h-18.2v-73.03Zm34.85,34.85c7.66,0,11.54-3.44,11.54-10.21s-4-10.32-12.43-10.32h-15.76v20.53h16.65Z"/><path class="b" d="M642.72,459.11h16.21c0,7.88,3.22,12.99,15.43,12.99s15.1-4.44,15.1-9.1c0-3.11-1.33-5.11-4.22-6.1-3.22-1.11-10.77-2.22-16.87-3.11-7.21-1.11-14.54-2.55-18.76-5.33-4.66-3-7.1-8.1-7.1-15.09,0-13.76,10.77-23.31,31.85-23.31,23.2,0,30.75,9.66,30.75,26.08h-16.09c0-8.32-4.33-12.88-14.32-12.88s-14.1,3.66-14.1,8.55c0,3.55,1,5.55,3.55,6.66,2.77,1.22,10.43,2.44,16.65,3.44,8.21,1.33,14.43,2.66,18.76,5,5.22,2.77,7.99,7.99,7.99,14.87,0,12.43-6.99,23.53-33.08,23.53s-31.74-12.76-31.74-26.19Z"/></g><path class="c" d="M692.23,122.8l-16.69,28.91h7.31l-15.27,26.45h10.08l-11.62,20.13c24.37,0,38.52,13.58,62.76,17.95l-21.99-38.08h10.08l-15.27-26.45h7.31l-16.69-28.91Z"/><path class="c" d="M673.67,112.4l-19.56,33.88h8.56l-17.9,31h11.82l-25.77,44.63h85.69l-25.77-44.63h11.82l-17.9-31h8.56l-19.56-33.88Z"/><path class="c" d="M619.48,105.26l-16.69,28.91h7.31l-15.27,26.45h10.08l-21.99,38.08h73.12l-21.99-38.08h10.08l-15.27-26.45h7.31l-16.69-28.91Z"/><path class="c" d="M355.62,28.05c1.09,19.75,2.18,39.5,3.28,59.25-3.43,2.71-6.28,5.63-8.55,8.77-4.03,5.56-6.71,13.69-15.61,12.54-3.6-.46-18.34,16.54-21.78,19.98l-33.92-24.5L355.62,28.05Zm399.66,223.62c-39.64-39.64-47.6-34.93-96.7-58.09-15.04-7.09-21.93-22.35-36.23-28.18-27.1-11.05-33.22-20.02-49.37-40.7-12.76-16.34-37.55-29.97-54.96-42.04-4.37-9.56-8.74-19.11-13.11-28.67-12.29-6.64-24.57-13.29-36.86-19.93-9.51,5.46-19.02,10.92-28.53,16.38,1.41,2.41,2.82,4.82,4.23,7.24,5.46-3.28,10.92-6.55,16.38-9.83,1.32-.45,2.64-.91,3.96-1.37,.96-.96,1.91-1.91,2.87-2.87,1.32,2.14,2.64,4.28,3.96,6.42-.73,.73-1.46,1.46-2.18,2.18-.84-.84-1.68-1.68-2.53-2.53-.77,.77-1.55,1.55-2.32,2.32-1.89,5.48-3.78,10.97-5.67,16.45-24.21,20.11-48.42,40.23-72.63,60.34,3.03-8.49,6.05-16.97,9.08-25.46,9.78-12.92,19.57-25.85,29.35-38.77,3.09-7.14,6.19-14.29,9.28-21.43-5.31-10.89-14.44-17.96-28.12-20.48-7.19-7.55-14.38-15.11-21.57-22.66-8.96,3.96-17.93,7.92-26.89,11.88-15.04,15.73-29.16,25.01-46.69,37.81-1.96,.23-3.91,.46-5.87,.68-12.51,11.6-25.03,23.21-37.54,34.81-5.37-3.05-10.74-6.1-16.11-9.15-24.75,21.05-48.39,43.92-76.28,60.69-32.1,19.3-48.16,32.06-75.39,68.59-32.95,17.75-65.89,35.49-98.84,53.24H15.56c48.69-5.37,97.38-10.74,146.07-16.11,8.1-3.46,16.2-6.92,24.3-10.38,23.03-18.11,46.05-36.22,69.08-54.33v3.28c-15.65,14.56-31.31,29.12-46.96,43.69v19.39c-5.73,4.1-11.47,8.19-17.2,12.29h14.47c12.95-3.53,24.82-4.3,34.68,0,34.13-21.3,68.26-42.59,102.39-63.89,8.1-3.64,16.2-7.28,24.3-10.92,24.57-16.56,49.15-33.13,73.72-49.69,.27,6.37,.55,12.74,.82,19.11-13.65,26.3-27.3,52.6-40.96,78.91,4.37,1.73,8.74,3.46,13.11,5.19,22.21,2.64,44.41,5.28,66.62,7.92,20.02-12.74,40.04-25.48,60.07-38.22,1.18,16.11,2.37,32.22,3.55,48.33,70.56-.48,141.12-.95,211.67-1.43Z"/><path class="c" d="M36.56,165.12l16.69,28.91h-7.31l15.27,26.45h-10.08l11.62,20.13c-24.37,0-38.52,13.58-62.76,17.95l21.99-38.08H11.9l15.27-26.45h-7.31l16.69-28.91Z"/><path class="c" d="M81.62,119.29l19.56,33.88h-8.56l17.9,31h-11.82l25.77,44.63H38.77l25.77-44.63h-11.82l17.9-31h-8.56l19.56-33.88Z"/><path class="c" d="M135.81,112.15l16.69,28.91h-7.31l15.27,26.45h-10.08l21.99,38.08H99.25l21.99-38.08h-10.08l15.27-26.45h-7.31l16.69-28.91Z"/></svg>